<svg width="20" height="20" viewBox="0 0 20 20" fill="none" xmlns="http://www.w3.org/2000/svg">
<path d="M8.75 17.5C9.44036 17.5 10 16.9404 10 16.25C10 15.5596 9.44036 15 8.75 15C8.05964 15 7.5 15.5596 7.5 16.25C7.5 16.9404 8.05964 17.5 8.75 17.5Z" fill="white"/>
<path d="M14.5833 17.5C15.2736 17.5 15.8333 16.9404 15.8333 16.25C15.8333 15.5596 15.2736 15 14.5833 15C13.8929 15 13.3333 15.5596 13.3333 16.25C13.3333 16.9404 13.8929 17.5 14.5833 17.5Z" fill="white"/>
<path d="M10.8332 10.8333H12.4999V8.34165H14.9916V6.67498H12.4999V4.19165H10.8332V6.67498H8.34155V8.34165H10.8332V10.8333Z" fill="white"/>
<path d="M8.33342 14.1667H15.0001C15.1679 14.1662 15.3318 14.115 15.47 14.0198C15.6083 13.9247 15.7147 13.79 15.7751 13.6333L18.1334 7.5H16.3501L14.4251 12.5H8.89175L5.15008 3.525C5.02322 3.22089 4.80906 2.9612 4.53465 2.77876C4.26025 2.59632 3.93793 2.49932 3.60841 2.5H1.66675V4.16667H3.60841L7.56675 13.65C7.62926 13.8022 7.73543 13.9325 7.87186 14.0244C8.0083 14.1163 8.16889 14.1658 8.33342 14.1667Z" fill="white"/>
</svg>
