<svg width="30" height="30" viewBox="0 0 30 30" fill="none" xmlns="http://www.w3.org/2000/svg">
<path d="M13.125 26.25C14.1605 26.25 15 25.4105 15 24.375C15 23.3395 14.1605 22.5 13.125 22.5C12.0895 22.5 11.25 23.3395 11.25 24.375C11.25 25.4105 12.0895 26.25 13.125 26.25Z" fill="black"/>
<path d="M21.875 26.25C22.9105 26.25 23.75 25.4105 23.75 24.375C23.75 23.3395 22.9105 22.5 21.875 22.5C20.8395 22.5 20 23.3395 20 24.375C20 25.4105 20.8395 26.25 21.875 26.25Z" fill="black"/>
<path d="M16.25 16.2501H18.75V12.5126H22.4875V10.0126H18.75V6.2876H16.25V10.0126H12.5125V12.5126H16.25V16.2501Z" fill="black"/>
<path d="M12.5 21.25H22.5C22.7518 21.2493 22.9975 21.1725 23.2049 21.0297C23.4124 20.887 23.5719 20.6849 23.6625 20.45L27.2 11.25H24.525L21.6375 18.75H13.3375L7.725 5.28751C7.53471 4.83133 7.21346 4.4418 6.80186 4.16814C6.39026 3.89448 5.90677 3.74898 5.4125 3.75001H2.5V6.25001H5.4125L11.35 20.475C11.4438 20.7033 11.603 20.8987 11.8077 21.0366C12.0123 21.1745 12.2532 21.2488 12.5 21.25Z" fill="black"/>
</svg>
