<svg width="23" height="25" viewBox="0 0 23 25" fill="none" xmlns="http://www.w3.org/2000/svg">
<path d="M11.5 4.78649C10.4558 3.74285 9.089 3.16362 7.67046 3.16357C6.91964 3.16442 6.17639 3.32666 5.48348 3.64094C4.79057 3.95522 4.16168 4.41534 3.633 4.99482C1.37804 7.45628 1.379 11.3063 3.63492 13.7573L10.6614 21.3948C10.8243 21.7063 11.1387 21.9073 11.5 21.9073C11.6483 21.9058 11.7943 21.8664 11.9261 21.7924C12.0579 21.7184 12.1719 21.6119 12.259 21.4813L19.365 13.7573C21.6209 11.3052 21.6209 7.45628 19.3631 4.99066C18.8347 4.41224 18.2063 3.95305 17.5141 3.63949C16.8218 3.32594 16.0794 3.1642 15.3295 3.16357C13.911 3.16383 12.5443 3.74302 11.5 4.78649ZM18.008 6.46357C19.5059 8.10003 19.5068 10.6563 18.0099 12.2844L11.5 19.3604L4.99 12.2844C3.49309 10.6563 3.49404 8.10003 4.98809 6.46774C5.71642 5.68024 6.669 5.24691 7.67046 5.24691C8.67192 5.24691 9.62067 5.68024 10.3433 6.46566L10.8224 6.98649C10.9113 7.08331 11.017 7.16012 11.1332 7.21253C11.2495 7.26493 11.3741 7.29191 11.5 7.29191C11.6258 7.29191 11.7504 7.26493 11.8667 7.21253C11.983 7.16012 12.0886 7.08331 12.1775 6.98649L12.6567 6.46566C14.1057 4.89378 16.5609 4.89795 18.008 6.46357Z" fill="black"/>
</svg>
