<svg width="29" height="29" viewBox="0 0 29 29" fill="none" xmlns="http://www.w3.org/2000/svg">
<path d="M26.2727 14.8999L15.3977 2.81652C14.9398 2.3066 14.0601 2.3066 13.6021 2.81652L2.72715 14.8999C2.57062 15.0734 2.46787 15.2886 2.4314 15.5194C2.39493 15.7503 2.42632 15.9867 2.52173 16.2C2.71506 16.6362 3.14765 16.9166 3.62494 16.9166H6.04161V25.3749C6.04161 25.6954 6.16891 26.0027 6.39552 26.2293C6.62213 26.4559 6.92947 26.5832 7.24994 26.5832H10.8749C11.1954 26.5832 11.5028 26.4559 11.7294 26.2293C11.956 26.0027 12.0833 25.6954 12.0833 25.3749V20.5416H16.9166V25.3749C16.9166 25.6954 17.0439 26.0027 17.2705 26.2293C17.4971 26.4559 17.8045 26.5832 18.1249 26.5832H21.7499C22.0704 26.5832 22.3778 26.4559 22.6044 26.2293C22.831 26.0027 22.9583 25.6954 22.9583 25.3749V16.9166H25.3749C25.609 16.9176 25.8382 16.8504 26.0347 16.7234C26.2313 16.5964 26.3866 16.4149 26.4818 16.2011C26.5769 15.9873 26.6078 15.7504 26.5707 15.5194C26.5336 15.2883 26.4301 15.0731 26.2727 14.8999Z" fill="black"/>
</svg>
