<svg width="30" height="30" viewBox="0 0 30 30" fill="none" xmlns="http://www.w3.org/2000/svg">
<path d="M14.9987 9.22119C13.4658 9.22119 11.9956 9.83015 10.9117 10.9141C9.82771 11.9981 9.21875 13.4682 9.21875 15.0012C9.21875 16.5341 9.82771 18.0043 10.9117 19.0883C11.9956 20.1722 13.4658 20.7812 14.9987 20.7812C16.5317 20.7812 18.0019 20.1722 19.0858 19.0883C20.1698 18.0043 20.7787 16.5341 20.7787 15.0012C20.7787 13.4682 20.1698 11.9981 19.0858 10.9141C18.0019 9.83015 16.5317 9.22119 14.9987 9.22119ZM14.9987 18.7549C14.0029 18.7549 13.0478 18.3593 12.3436 17.6551C11.6394 16.9509 11.2437 15.9958 11.2437 14.9999C11.2437 14.0041 11.6394 13.049 12.3436 12.3448C13.0478 11.6406 14.0029 11.2449 14.9987 11.2449C15.9946 11.2449 16.9497 11.6406 17.6539 12.3448C18.3581 13.049 18.7537 14.0041 18.7537 14.9999C18.7537 15.9958 18.3581 16.9509 17.6539 17.6551C16.9497 18.3593 15.9946 18.7549 14.9987 18.7549Z" fill="black"/>
<path d="M21.0074 10.3561C21.7516 10.3561 22.3549 9.75284 22.3549 9.00863C22.3549 8.26443 21.7516 7.66113 21.0074 7.66113C20.2632 7.66113 19.6599 8.26443 19.6599 9.00863C19.6599 9.75284 20.2632 10.3561 21.0074 10.3561Z" fill="black"/>
<path d="M25.6662 7.63885C25.3768 6.89157 24.9346 6.21295 24.3679 5.64642C23.8011 5.07989 23.1223 4.63794 22.3749 4.34885C21.5004 4.02054 20.5764 3.84302 19.6424 3.82385C18.4387 3.77135 18.0574 3.75635 15.0049 3.75635C11.9524 3.75635 11.5612 3.75635 10.3674 3.82385C9.43418 3.84204 8.51089 4.0196 7.63744 4.34885C6.88986 4.6376 6.2109 5.07944 5.64411 5.64601C5.07732 6.21258 4.63523 6.89138 4.34619 7.63885C4.01782 8.51336 3.84071 9.43739 3.82244 10.3713C3.76869 11.5738 3.75244 11.9551 3.75244 15.0088C3.75244 18.0613 3.75244 18.4501 3.82244 19.6463C3.84119 20.5813 4.01744 21.5038 4.34619 22.3801C4.63604 23.1273 5.07856 23.8058 5.64549 24.3723C6.21241 24.9388 6.89127 25.3808 7.63869 25.6701C8.51048 26.0116 9.43416 26.2018 10.3699 26.2326C11.5737 26.2851 11.9549 26.3013 15.0074 26.3013C18.0599 26.3013 18.4512 26.3013 19.6449 26.2326C20.5788 26.2136 21.5027 26.0365 22.3774 25.7088C23.1246 25.4191 23.8032 24.9767 24.3699 24.4101C24.9366 23.8434 25.3789 23.1648 25.6687 22.4176C25.9974 21.5426 26.1737 20.6201 26.1924 19.6851C26.2462 18.4826 26.2624 18.1013 26.2624 15.0476C26.2624 11.9938 26.2624 11.6063 26.1924 10.4101C26.1779 9.46294 25.9999 8.52541 25.6662 7.63885ZM24.1437 19.5538C24.1356 20.2742 24.0041 20.9879 23.7549 21.6638C23.5672 22.1499 23.2798 22.5913 22.9113 22.9597C22.5427 23.328 22.1011 23.6152 21.6149 23.8026C20.9465 24.0507 20.2404 24.1821 19.5274 24.1913C18.3399 24.2463 18.0049 24.2601 14.9599 24.2601C11.9124 24.2601 11.6012 24.2601 10.3912 24.1913C9.6786 24.1826 8.97285 24.0511 8.30494 23.8026C7.81705 23.6163 7.37369 23.3297 7.00355 22.9613C6.63341 22.5929 6.34474 22.1509 6.15619 21.6638C5.9105 20.9952 5.77908 20.2899 5.76744 19.5776C5.71369 18.3901 5.70119 18.0551 5.70119 15.0101C5.70119 11.9638 5.70119 11.6526 5.76744 10.4413C5.77552 9.72138 5.90701 9.00812 6.15619 8.3326C6.53744 7.34635 7.31869 6.5701 8.30494 6.1926C8.97318 5.94527 9.67872 5.8138 10.3912 5.80385C11.5799 5.7501 11.9137 5.7351 14.9599 5.7351C18.0062 5.7351 18.3187 5.7351 19.5274 5.80385C20.2405 5.81243 20.9466 5.94394 21.6149 6.1926C22.1011 6.38044 22.5426 6.66785 22.9112 7.03639C23.2797 7.40492 23.5671 7.84644 23.7549 8.3326C24.0006 9.00128 24.1321 9.70655 24.1437 10.4188C24.1974 11.6076 24.2112 11.9413 24.2112 14.9876C24.2112 18.0326 24.2112 18.3601 24.1574 19.5551H24.1437V19.5538Z" fill="black"/>
</svg>
