<svg width="34" height="34" viewBox="0 0 34 34" fill="none" xmlns="http://www.w3.org/2000/svg">
<path d="M5.33301 17H3.66634V30.3334C3.66634 31.2174 4.01753 32.0653 4.64265 32.6904C5.26777 33.3155 6.11562 33.6667 6.99967 33.6667H15.333V17H5.33301ZM26.9997 17H18.6663V33.6667H26.9997C27.8837 33.6667 28.7316 33.3155 29.3567 32.6904C29.9818 32.0653 30.333 31.2174 30.333 30.3334V17H26.9997ZM28.318 8.66671C28.5625 7.85635 28.68 7.01302 28.6663 6.16671C28.6663 2.95004 26.0497 0.333374 22.833 0.333374C20.1297 0.333374 18.3247 2.80337 17.1597 5.47504C16.0113 2.95004 14.1147 0.333374 11.1663 0.333374C7.94967 0.333374 5.33301 2.95004 5.33301 6.16671C5.33301 7.16004 5.46467 7.98171 5.68134 8.66671H0.333008V15.3334H15.333V12H18.6663V15.3334H33.6663V8.66671H28.318ZM8.66634 6.16671C8.66634 4.78837 9.78801 3.66671 11.1663 3.66671C12.6463 3.66671 14.023 6.20837 14.8297 8.66671H10.333C9.70967 8.66671 8.66634 8.66671 8.66634 6.16671ZM22.833 3.66671C24.2113 3.66671 25.333 4.78837 25.333 6.16671C25.333 8.66671 24.2897 8.66671 23.6663 8.66671H19.538C20.388 6.04004 21.623 3.66671 22.833 3.66671Z" fill="white"/>
</svg>
