<svg width="28" height="31" viewBox="0 0 28 31" fill="none" xmlns="http://www.w3.org/2000/svg">
<path d="M13.9564 3.35565C11.6826 3.35565 9.45997 4.07262 7.56944 5.41589C5.67891 6.75915 4.20542 8.66839 3.3353 10.9022C2.46519 13.1359 2.23752 15.5939 2.68111 17.9653C3.12469 20.3366 4.21959 22.5149 5.82736 24.2245C7.43512 25.9342 9.48354 27.0985 11.7136 27.5702C13.9436 28.0419 16.2551 27.7998 18.3557 26.8745C20.4564 25.9492 22.2519 24.3824 23.5151 22.372C24.7783 20.3617 25.4525 17.9982 25.4525 15.5804C25.4525 12.3382 24.2413 9.22876 22.0854 6.93618C19.9294 4.64361 17.0053 3.35565 13.9564 3.35565ZM13.9564 25.3601C12.1374 25.3601 10.3593 24.7865 8.84683 23.7119C7.3344 22.6373 6.15561 21.1099 5.45951 19.3229C4.76342 17.5359 4.58129 15.5695 4.93616 13.6724C5.29102 11.7753 6.16694 10.0327 7.45316 8.66502C8.73937 7.29729 10.3781 6.36586 12.1621 5.98851C13.9462 5.61115 15.7954 5.80483 17.4759 6.54503C19.1564 7.28524 20.5928 8.53874 21.6033 10.147C22.6139 11.7553 23.1533 13.6461 23.1533 15.5804C23.1533 18.1741 22.1843 20.6616 20.4596 22.4957C18.7348 24.3298 16.3955 25.3601 13.9564 25.3601Z" fill="black"/>
<path d="M18.5548 13.1354C18.5548 12.1627 18.1915 11.2299 17.5447 10.5421C16.8979 9.85437 16.0207 9.46799 15.106 9.46799H9.35791V21.6927H11.6571V16.8028H13.3356L16.4051 21.6927H19.1641L16.0027 16.6561C16.7319 16.4473 17.3765 15.9898 17.8376 15.3538C18.2986 14.7178 18.5506 13.9384 18.5548 13.1354ZM15.106 14.3579H11.6571V11.9129H15.106C15.4109 11.9129 15.7033 12.0417 15.9189 12.271C16.1345 12.5002 16.2556 12.8112 16.2556 13.1354C16.2556 13.4596 16.1345 13.7706 15.9189 13.9998C15.7033 14.2291 15.4109 14.3579 15.106 14.3579Z" fill="black"/>
</svg>
