<svg width="30" height="30" viewBox="0 0 30 30" fill="none" xmlns="http://www.w3.org/2000/svg">
<path d="M15.0001 6.24746C12.7051 6.24746 10.8051 6.73371 9.22887 7.46121L4.63387 2.86621L2.86637 4.63371L7.01012 8.77746C3.74387 11.2175 2.58137 14.55 2.56387 14.6025L2.43262 14.9975L2.56387 15.3925C2.59137 15.4775 5.45887 23.75 15.0001 23.75C17.2939 23.75 19.1926 23.2637 20.7689 22.5362L25.3664 27.1337L27.1339 25.3662L22.9876 21.22C26.2551 18.78 27.4189 15.4475 27.4364 15.395L27.5676 15L27.4364 14.605C27.4089 14.52 24.5414 6.24746 15.0001 6.24746ZM15.0539 8.74996H15.0001C16.6577 8.74996 18.2474 9.40844 19.4195 10.5805C20.5916 11.7526 21.2501 13.3424 21.2501 15C21.2438 16.2198 20.8729 17.41 20.1851 18.4175L19.2839 17.5162C19.7465 16.7575 19.9941 15.8873 20.0001 14.9987C20.0001 14.4062 19.8764 13.8425 19.6814 13.3125C19.5669 13.4482 19.4244 13.5576 19.2636 13.6331C19.1029 13.7087 18.9277 13.7485 18.7501 13.75C18.4186 13.75 18.1007 13.6183 17.8662 13.3838C17.6318 13.1494 17.5001 12.8315 17.5001 12.5C17.5001 11.9512 17.8601 11.4975 18.3526 11.33C17.442 10.4809 16.2452 10.0056 15.0001 9.99871C14.0814 9.99871 13.2264 10.2712 12.4814 10.7137L11.5814 9.81371C12.5664 9.15746 13.7276 8.74996 15.0001 8.74996H14.9464L15.0001 8.74746L15.0539 8.74996ZM5.09262 14.9987C5.22137 14.705 5.43512 14.2662 5.74387 13.7625L13.0776 21.0962C7.81137 20.2875 5.65387 16.2937 5.09262 14.9987ZM16.6514 21.1337L7.30137 11.7837C7.75634 11.3277 8.25357 10.9158 8.78637 10.5537L18.8551 20.6225C18.14 20.8679 17.4015 21.0392 16.6514 21.1337Z" fill="black"/>
</svg>
