<svg width="30" height="30" viewBox="0 0 30 30" fill="none" xmlns="http://www.w3.org/2000/svg">
<path d="M15.0001 6.24746C12.7051 6.24746 10.8051 6.73371 9.22887 7.46121L4.63387 2.86621L2.86637 4.63371L7.01012 8.77871C3.74387 11.2187 2.58137 14.5512 2.56387 14.6037L2.43262 14.9987L2.56387 15.3937C2.59137 15.4775 5.45887 23.75 15.0001 23.75C17.2939 23.75 19.1926 23.2637 20.7689 22.5362L25.3664 27.1337L27.1339 25.3662L22.9876 21.22C26.2551 18.78 27.4189 15.4475 27.4364 15.395L27.5676 15L27.4364 14.605C27.4089 14.52 24.5414 6.24746 15.0001 6.24746ZM5.09262 15C5.22137 14.705 5.43512 14.2675 5.74387 13.7637L13.0776 21.0975C7.81137 20.2875 5.65387 16.2937 5.09262 15ZM16.6514 21.1337L7.30137 11.7825C7.75642 11.3272 8.25365 10.9162 8.78637 10.555L18.8551 20.6225C18.14 20.8679 17.4015 21.0392 16.6514 21.1337ZM21.2114 19.4437L19.2851 17.5175C19.7276 16.7725 20.0001 15.9175 20.0001 14.9987C20.0001 14.4062 19.8764 13.8437 19.6814 13.3125C19.567 13.4484 19.4245 13.5578 19.2637 13.6334C19.103 13.7089 18.9277 13.7487 18.7501 13.75C18.4186 13.75 18.1007 13.6183 17.8662 13.3838C17.6318 13.1494 17.5001 12.8315 17.5001 12.5C17.5001 11.9512 17.8601 11.4975 18.3526 11.33C17.4417 10.4814 16.245 10.0062 15.0001 9.99871C14.0814 9.99871 13.2264 10.2712 12.4814 10.7137L11.1439 9.37621C12.3846 8.95038 13.6884 8.73779 15.0001 8.74746C21.6889 8.74746 24.2814 13.5562 24.9076 14.9975C24.1062 16.7902 22.8276 18.3283 21.2114 19.4437Z" fill="black"/>
</svg>
