<?xml version="1.0" encoding="utf-8"?>
<!-- Generator: Adobe Illustrator 19.2.1, SVG Export Plug-In . SVG Version: 6.00 Build 0)  -->
<svg version="1.1" id="Capa_1" xmlns="http://www.w3.org/2000/svg" xmlns:xlink="http://www.w3.org/1999/xlink" x="0px" y="0px"
	 viewBox="0 0 175 26" style="enable-background:new 0 0 175 26;" xml:space="preserve">
<style type="text/css">
	.st0{fill:#1D1D1B;}
</style>
<g>
	<g>
		<path class="st0" d="M171.9,17.6h-8.1c-3.7-0.4-4.9-3.6-4.9-6.8c0-3,1.3-5.8,4.9-6.2h1.6h0.9h7.8V1.8h-7.8h-0.9H164
			c-4.3,0-7.5,3.2-7.8,7.8c-0.2,1-0.1,1.9,0,2.8c0.5,4.6,3.3,7.9,7.8,7.9h7.5c0.6,0,0.6,1.1,0,1.1h-14.6v2.7l15,0
			C175.4,24.1,175.5,17.6,171.9,17.6z"/>
		<rect x="142.7" y="1.8" class="st0" width="2.7" height="22.3"/>
		<path class="st0" d="M120.8,1.3c-6.6,0-12,5.3-12,11.8c0,6.5,5.4,11.8,12,11.8c6.6,0,12-5.3,12-11.8
			C132.8,6.5,127.4,1.3,120.8,1.3z M120.8,22.1c-5.1,0-9.2-3.8-9.2-9c0-5.2,4.1-9,9.2-9c5.1,0,9.3,3.8,9.3,9
			C130.1,18.2,125.9,22.1,120.8,22.1z"/>
		<polygon class="st0" points="85.8,24.1 85.8,1.8 103.8,1.8 103.8,4.5 88.5,4.5 88.5,17.6 94.4,17.6 94.4,20.3 88.5,20.3 
			88.5,24.1 85.8,24.1 		"/>
		<path class="st0" d="M17.9,9.6c-0.3-4.6-3.5-7.8-7.8-7.8H0v22.3h2.7v-3.8h7.4c4.5,0,7.4-3.3,7.8-7.9C18,11.5,18.1,10.6,17.9,9.6z
			 M10.3,17.6H2.7l0-13.1h7.6c3.6,0.4,4.9,3.2,4.9,6.2C15.3,14,14,17.2,10.3,17.6z"/>
		<path class="st0" d="M69.4,19.2c2.7-1.9,4-3.7,4-8.3c0-2.9-0.7-5.2-2.2-6.8c-0.4-0.5-1-0.9-1.6-1.3c0,0-0.1,0-0.1-0.1
			c-0.1-0.1-0.3-0.1-0.4-0.2c0,0-0.1,0-0.1,0c-0.1,0-0.1-0.1-0.2-0.1c-1.4-0.6-2.8-0.7-3.2-0.7H55.4v22.3h2.7v-3.8c0.4,0,3,0,3.4,0
			c5.4,0,8.2,1.4,10,3.8h3.1C73.6,22.4,72.4,21,69.4,19.2z M67.5,17c-1,0.4-2,0.5-2.6,0.6h-3.4h-3.4V4.5H65c0.1,0,0.1,0,0.2,0l0,0
			c0,0,2.9,0,4.4,2c0,0,0,0,0,0c0.8,1,1.1,2.3,1.1,4V12C70.7,14.4,69.5,16.1,67.5,17z"/>
		<g>
			<g>
				<path class="st0" d="M35.2,0.9L24.5,24.1h2.7l1.7-3.8h12.7l1.7,3.8h2.7L35.2,0.9z M30.1,17.6l5.1-11.4l5.1,11.4H30.1z"/>
			</g>
		</g>
	</g>
</g>
</svg>
