<svg width="307" height="33" viewBox="0 0 307 33" fill="none" xmlns="http://www.w3.org/2000/svg">
<g filter="url(#filter0_d_397_303)">
<path d="M23.224 0.735998H31.16V13.472C31.1173 16.608 30.04 19.2 27.928 21.248C25.8373 23.296 22.3067 24.32 17.336 24.32C12.3013 24.32 8.856 23.3493 7 21.408C5.144 19.4453 4.23733 16.8747 4.28 13.696V0.735998H12.216V13.184C12.216 14.1227 12.28 14.8907 12.408 15.488C12.5573 16.064 13.0053 16.608 13.752 17.12C14.52 17.632 15.7467 17.888 17.432 17.888C19.2667 17.888 20.6107 17.632 21.464 17.12C22.3173 16.5867 22.8187 16 22.968 15.36C23.1387 14.72 23.224 13.8987 23.224 12.896V0.735998ZM59.4135 8.512C59.4135 10.368 58.9548 11.936 58.0375 13.216C57.1415 14.496 55.5948 15.424 53.3975 16C53.6535 16.3413 53.8348 16.608 53.9415 16.8L59.1255 24H50.4215C49.4828 22.2507 48.0002 19.776 45.9735 16.576H41.2695V24H33.7175C33.8882 19.8613 33.9735 15.9893 33.9735 12.384C33.9735 8.77867 33.8882 4.90667 33.7175 0.768H41.2695V0.799999H47.8295C52.1388 0.799999 55.1468 1.49333 56.8535 2.88C58.5602 4.26667 59.4135 6.144 59.4135 8.512ZM41.2695 6.944V10.592H45.5895C47.4028 10.592 48.7682 10.5387 49.6855 10.432C50.6242 10.304 51.2748 10.112 51.6375 9.856C52.0002 9.6 52.1815 9.22667 52.1815 8.736C52.1815 8.26667 52.0108 7.904 51.6695 7.648C51.3282 7.392 50.6882 7.21067 49.7495 7.104C48.8108 6.99733 47.4242 6.944 45.5895 6.944H41.2695ZM80.7195 12.448C85.5835 12.448 88.0155 13.9947 88.0155 17.088C88.0155 18.5387 87.6848 19.776 87.0235 20.8C86.3622 21.8027 85.1782 22.592 83.4715 23.168C81.7648 23.7227 79.3968 24 76.3675 24H61.9675C62.1382 19.8613 62.2235 15.9893 62.2235 12.384C62.2235 8.77867 62.1382 4.90667 61.9675 0.768H69.4875V0.799999H76.3035C78.9488 0.799999 81.0288 1.024 82.5435 1.472C84.0795 1.89867 85.1568 2.528 85.7755 3.36C86.4155 4.192 86.7355 5.248 86.7355 6.528C86.7355 7.82933 86.2768 8.992 85.3595 10.016C84.4635 11.0187 82.9168 11.8293 80.7195 12.448ZM69.4875 6.624V9.6H75.6315C76.9542 9.6 77.8715 9.48267 78.3835 9.248C78.9168 9.01333 79.1835 8.58667 79.1835 7.968C79.1835 7.47733 78.9062 7.136 78.3515 6.944C77.8182 6.73067 76.9115 6.624 75.6315 6.624H69.4875ZM75.6315 18.144C76.7408 18.144 77.5835 18.1013 78.1595 18.016C78.7568 17.9093 79.1835 17.7387 79.4395 17.504C79.6955 17.248 79.8235 16.9067 79.8235 16.48C79.8235 15.9253 79.5142 15.5307 78.8955 15.296C78.2982 15.04 77.2102 14.912 75.6315 14.912H69.4875V18.144H75.6315ZM108.847 24C108.442 22.784 107.898 21.2587 107.215 19.424H97.007L95.407 24H87.375L96.335 0.768H108.111L117.135 24H108.847ZM105.391 14.432C104.58 12.192 103.748 9.952 102.895 7.712L102.127 5.632C101.38 7.57333 100.282 10.5067 98.831 14.432H105.391ZM145.066 0.799999C144.916 4.40533 144.842 8.26667 144.842 12.384C144.842 16.5227 144.916 20.3947 145.066 24H133.61L125.866 6.528L126.442 24H118.218C118.388 19.8613 118.474 15.9893 118.474 12.384C118.474 8.8 118.388 4.93867 118.218 0.799999H129.994L137.77 18.752L137.226 0.799999H145.066ZM187.636 0.768L185.524 5.664C183.668 9.99467 182.207 13.4613 181.14 16.064C180.074 18.6667 179.092 21.312 178.196 24H168.628C167.754 21.3547 166.783 18.7413 165.716 16.16C164.671 13.5573 163.263 10.2293 161.492 6.176C161.194 5.49333 160.415 3.69067 159.156 0.768H168.052C168.692 2.83733 169.642 5.49333 170.9 8.736C172.01 11.5947 172.906 14.0693 173.588 16.16C174.036 14.688 174.57 13.12 175.188 11.456C175.828 9.77067 176.212 8.74667 176.34 8.384C177.578 5.12 178.484 2.58133 179.06 0.768H187.636ZM201.676 24.32C196.791 24.32 193.196 23.264 190.892 21.152C188.588 19.0187 187.436 16.032 187.436 12.192C187.436 8.39467 188.578 5.42933 190.86 3.296C193.164 1.16267 196.77 0.0959988 201.676 0.0959988C206.604 0.0959988 210.21 1.16267 212.492 3.296C214.796 5.42933 215.948 8.39467 215.948 12.192C215.948 16.0533 214.807 19.04 212.524 21.152C210.242 23.264 206.626 24.32 201.676 24.32ZM201.676 17.792C204.044 17.792 205.751 17.344 206.796 16.448C207.842 15.5307 208.364 14.112 208.364 12.192C208.364 10.3147 207.842 8.91733 206.796 8C205.751 7.08267 204.044 6.624 201.676 6.624C199.33 6.624 197.634 7.08267 196.588 8C195.543 8.91733 195.02 10.3147 195.02 12.192C195.02 14.0907 195.543 15.4987 196.588 16.416C197.634 17.3333 199.33 17.792 201.676 17.792ZM231.683 10.752H245.347V24H239.715L239.043 18.336C238.403 20.3627 237.261 21.8667 235.619 22.848C233.976 23.8293 231.971 24.32 229.603 24.32C227.448 24.32 225.528 23.84 223.843 22.88C222.179 21.92 220.867 20.544 219.907 18.752C218.968 16.96 218.499 14.8693 218.499 12.48C218.499 8.66133 219.64 5.64267 221.923 3.424C224.205 1.20533 227.757 0.0959988 232.579 0.0959988C235.331 0.0959988 237.752 0.543999 239.843 1.44C241.955 2.336 243.747 3.72267 245.219 5.6C244.259 6.09067 242.381 7.072 239.587 8.544L238.787 8.992C237.955 8.16 236.984 7.54133 235.875 7.136C234.765 6.70933 233.592 6.496 232.355 6.496C230.307 6.496 228.781 7.04 227.779 8.128C226.776 9.19467 226.275 10.5173 226.275 12.096C226.275 13.8027 226.808 15.1787 227.875 16.224C228.963 17.2693 230.616 17.792 232.835 17.792C233.795 17.792 234.723 17.6533 235.619 17.376C236.536 17.0987 237.304 16.6187 237.923 15.936H231.683V10.752ZM266.849 0.735998H274.785V13.472C274.742 16.608 273.665 19.2 271.553 21.248C269.462 23.296 265.932 24.32 260.961 24.32C255.926 24.32 252.481 23.3493 250.625 21.408C248.769 19.4453 247.862 16.8747 247.905 13.696V0.735998H255.841V13.184C255.841 14.1227 255.905 14.8907 256.033 15.488C256.182 16.064 256.63 16.608 257.377 17.12C258.145 17.632 259.372 17.888 261.057 17.888C262.892 17.888 264.236 17.632 265.089 17.12C265.942 16.5867 266.444 16 266.593 15.36C266.764 14.72 266.849 13.8987 266.849 12.896V0.735998ZM284.895 18.144C293.001 18.1013 298.879 17.984 302.527 17.792C302.377 18.6667 302.281 19.5733 302.239 20.512C302.217 21.4293 302.207 22.592 302.207 24H277.343C277.513 19.8613 277.599 15.9893 277.599 12.384C277.599 8.77867 277.513 4.90667 277.343 0.768H302.207V6.56H284.895V9.632C285.919 9.65333 287.433 9.664 289.439 9.664C292.831 9.664 296.34 9.6 299.967 9.472V14.976C296.34 14.848 292.831 14.784 289.439 14.784C287.433 14.784 285.919 14.7947 284.895 14.816V18.144Z" fill="white"/>
</g>
<defs>
<filter id="filter0_d_397_303" x="0.215942" y="0.0959473" width="306.311" height="32.2241" filterUnits="userSpaceOnUse" color-interpolation-filters="sRGB">
<feFlood flood-opacity="0" result="BackgroundImageFix"/>
<feColorMatrix in="SourceAlpha" type="matrix" values="0 0 0 0 0 0 0 0 0 0 0 0 0 0 0 0 0 0 127 0" result="hardAlpha"/>
<feOffset dy="4"/>
<feGaussianBlur stdDeviation="2"/>
<feComposite in2="hardAlpha" operator="out"/>
<feColorMatrix type="matrix" values="0 0 0 0 0 0 0 0 0 0 0 0 0 0 0 0 0 0 0.25 0"/>
<feBlend mode="normal" in2="BackgroundImageFix" result="effect1_dropShadow_397_303"/>
<feBlend mode="normal" in="SourceGraphic" in2="effect1_dropShadow_397_303" result="shape"/>
</filter>
</defs>
</svg>
